<?xml version="1.0" encoding="utf-8"?>
<!-- Generator: Adobe Illustrator 21.0.2, SVG Export Plug-In . SVG Version: 6.00 Build 0)  -->
<svg version="1.1" id="Layer_1" xmlns="http://www.w3.org/2000/svg" xmlns:xlink="http://www.w3.org/1999/xlink" x="0px" y="0px"
	 viewBox="0 0 975.2 975.2" style="enable-background:new 0 0 975.2 975.2;" xml:space="preserve">
<style type="text/css">
	.st0{fill:#E63023;}
</style>
<g id="_x23_e63023ff">
	<path class="st0" d="M507.8,6.4C511-2,525-2.1,528.5,6c11.4,28.6,22,57.6,34,86c10.7,25.7,21.4,51.3,32.1,77
		c-23.9,60.4-47.9,120.9-71.9,181.3c-6.1,14.9-11,30.3-16.4,45.5c-27.7,79-55.2,158.1-83,237.1c-8.5,4.9-17.6,9-26.4,13.4
		c-56.7,28.4-113.5,56.7-170.3,85.1c15-36.8,28.9-74.1,43.4-111.1C349.2,415.7,428.5,211,507.8,6.4z"/>
	<path class="st0" d="M522.2,369.2c25.5-64.1,50.9-128.3,76.3-192.4c40.8,97.9,81.7,195.8,122.4,293.6
		c-43.7,20.4-87.4,40.8-131,61.2C567.3,477.5,544.7,423.3,522.2,369.2z"/>
	<path class="st0" d="M458.7,623.5C586.9,563.7,715,503.6,843.2,443.9C610,621,376.6,797.9,143.4,975c-3.5-0.3-7.5-1-9.8-3.9
		c-2-2.3-2-5.7-0.8-8.4c30.6-74.5,61.2-149,91.8-223.5c59.8-29.8,119.5-59.7,179.3-89.5C421.9,640.4,440.4,632.1,458.7,623.5z"/>
	<path class="st0" d="M507.9,770.9c5.2-0.6,10.4-0.1,15.6-0.3c12.8-0.3,26.5,1.5,37,9.5c8.1,6.1,12.5,15.9,13.6,25.8
		c1,10.3,0.5,21.2-4.4,30.5c-4.5,8.8-13,15-22.4,17.9c-12.6,4.2-26.1,3.3-39.2,3.2c-0.4-11.8-0.1-23.6-0.1-35.4c5.6,0,11.3,0,16.9,0
		c0,6.4,0,12.8,0,19.1c8.6,0.3,18.2-0.8,24.8-6.8c5.7-5,7.7-13,7.7-20.4c0.1-7.6-2.2-15.8-8.2-20.9c-6.6-5.8-15.9-7-24.3-6.6
		c0,6.4,0,12.8,0,19.3c-5.6,0-11.3,0-16.9,0C507.9,794.2,508.1,782.6,507.9,770.9z"/>
	<path class="st0" d="M627.7,770.7c5.4-0.2,10.9-0.2,16.3,0.1c-0.1,28.9,0.1,57.9-0.1,86.8c-5.6,0.1-11.2,0.3-16.8-0.1
		c-0.1-5.3,0-10.6-0.1-16c-10.8,0-21.7,0-32.5,0c0,5.3,0,10.6,0,16c-5.6,0.3-11.3,0.5-17-0.1c-0.1-10.9,0-21.8,0-32.7
		c16.5-0.1,33,0.3,49.5,0.1c0.1-17.9-0.1-35.7,0.1-53.6L627.7,770.7z"/>
	<path class="st0" d="M469.6,770.8c0.5,0,1.5-0.1,2-0.2c11,27.3,21.3,54.8,32.1,82.2c0.5,1.5,1.4,3.1,1,4.8
		c-5.7-0.3-11.5,0.5-17.1-0.4c-5.4-16.2-11.5-32.1-16.9-48.3c-5.3,15.1-10.6,30.2-15.8,45.3c-0.6,1.1-0.7,3.4-2.4,3.3
		c-5.4,0.2-10.8,0.2-16.2-0.1c5.9-16.7,12.7-33,19-49.6C460,795.5,464.7,783.1,469.6,770.8z"/>
	<path class="st0" d="M578.5,770.8c5.6-0.4,11.3-0.2,17-0.2c0,12.6,0,25.3,0,37.9c-5.7,0-11.3,0-17,0
		C578.5,796,578.5,783.4,578.5,770.8z"/>
	<path class="st0" d="M677.9,771.7c12.1-2.6,25.7-1.3,35.9,6.3c16.7,12.1,21.2,36.3,13.4,54.8c-3.6,8.7-10.2,16.3-18.7,20.5
		c-9.9,4.9-21.5,5.5-32.1,2.7c-9.9-2.6-18.5-9.5-23.5-18.5c-7-12.6-7.9-28.3-2.6-41.6C654.9,783.9,665.4,774.4,677.9,771.7
		 M685.6,786.3c-6.5,0.7-12.6,4.3-16.3,9.7c-5.9,8.5-6.9,19.9-3.5,29.5c2.6,7.5,8.9,13.9,16.7,15.6c9.2,2.6,19.9-0.6,25.7-8.3
		c8.1-10.7,8-26.8,0-37.6C703.2,788.4,694.1,785.1,685.6,786.3z"/>
	<path class="st0" d="M744.8,783.6c8.7-9.1,21.6-12.2,33.7-12.9c7.5-0.2,15,0,22.5-0.1c0.5,11.7,0.1,23.5,0.2,35.3
		c-5.6,0-11.3,0-16.9,0c-0.1-6.4,0-12.8,0-19.3c-9.2-0.4-19.5,1.2-26,8.3c-6.4,7-7.2,17.3-5.8,26.3c1.2,7.9,6.7,15,14.2,17.7
		c11,4.2,23,1.6,34.5,2.3c0,5.3,0,10.7,0.1,16c-7.2,0.8-14.6,0.3-21.8,0.2c-11.6-0.8-23.8-3.5-32.6-11.6c-7.8-6.9-11.5-17.4-12-27.6
		C734,806.1,736.2,792.8,744.8,783.6z"/>
	<path class="st0" d="M685.7,806.3c6-3,13.3,3.4,11.4,9.7c-1.1,6-9.4,8.6-13.8,4.3C678.8,816.5,680.2,808.4,685.7,806.3z"/>
	<path class="st0" d="M401,893.4c14-6.6,29.9-5.7,45-5.4c0.1,5.4,0,10.8,0,16.2c-7.5,0-15.1-0.1-22.6,0c-8.1,0.4-17,3-22,9.9
		c-4.9,7-5.7,16.3-4.2,24.5c1.1,6.5,5,12.6,10.8,16c6.3,3.7,13.8,4.5,20.9,4.2c0-7,0-14.1,0-21.1c-5.5,0-11,0-16.5,0
		c0-5.7,0-11.3,0-17c11.2,0,22.3,0,33.5,0c0,15.2,0,30.3,0,45.5c0,3,0.2,6-0.3,9c-15.2-0.1-31.3,1.1-45.5-5.7
		c-9.2-4.2-16.1-12.6-18.7-22.3c-2.8-10.6-2.9-22.1,0.5-32.6C384.9,905.1,392,897.4,401,893.4z"/>
	<path class="st0" d="M479.4,895.1c1.1-2.7,1.7-5.7,3.8-7.8c0.9,0.9,1.6,2,2.1,3.2c9.7,25.2,19.6,50.4,29.4,75.6
		c1.1,2.9,2.6,5.8,2.9,8.9c-5.1,0.3-10.1,0.2-15.2,0.2c-2.3,0.3-2.6-2.3-3.2-3.8c-5.3-15-10.6-29.9-15.9-44.8
		c-5.5,15.6-10.9,31.3-16.4,46.9c-0.9,2.7-4.3,1.5-6.4,1.8c-3.9-0.4-8.1,0.8-11.8-0.8C459,947.9,469.2,921.5,479.4,895.1z"/>
	<path class="st0" d="M520.6,888c5.6-0.3,11.3-0.7,16.8,0.1c10.7,21,20.8,42.4,31.3,63.5c9.6-20.8,19.4-41.6,29-62.4
		c0.5-1.7,2.3-1.6,3.7-1.6c4.5,0,9.1-0.1,13.6,0.2c0,22,0,44.1,0,66.1c-5.5,0-11,0-16.5,0c0-9.1,0-18.1,0-27.2
		c-7.2,14.2-14.2,28.6-21.4,42.8c-1.2,3.1-5.1,1.5-7.6,1.9c-2.8-0.4-6.2,0.9-8.6-0.8c-7.9-14.9-15.5-30-23.4-45
		c-0.1,16.4,0.2,32.8-0.2,49.2c-5.2,0.1-10.5,0.2-15.7,0c-0.3-0.2-0.8-0.7-1-0.9C520.4,945.4,520.5,916.7,520.6,888z"/>
	<path class="st0" d="M629.6,887.8c5.6-0.1,11.2,0,16.8,0c0,24,0,47.9,0,71.9c3.3,0,6.7-0.1,10,0.2c-0.1,5,0.2,10-0.2,15
		c-10.9,0.4-21.9,0.1-32.8,0.2c-1.3-0.2-3.2,0.5-3.8-1c-0.3-4.7,0-9.4-0.1-14c3.3-0.7,6.8-0.3,10.1-0.4
		C629.7,935.7,629.6,911.8,629.6,887.8z"/>
	<path class="st0" d="M658.1,887.9c5.5,0,11-0.4,16.5,0.1c13.5,18.8,26.6,37.9,39.9,56.8c0-18.9-0.1-37.9,0-56.8
		c5.6-0.5,11.3-0.4,16.9,0c0.2,28.4-0.1,56.8,0,85.1c0.1,3-4,1.5-5.9,1.9c-3.6-0.5-8,1.1-11.1-0.9c-13.2-18.6-26.2-37.4-39.3-56
		c-0.1,12,0,24-0.1,36c-5.7,0-11.3,0-17,0C658,932,657.8,909.9,658.1,887.9z"/>
	<path class="st0" d="M753.3,894.9c14.5-8.2,31.8-7.2,47.8-7c0.2,5.4,0.1,10.7,0.1,16.1c-11.7,0.6-24-1.8-35.2,2.7
		c-7.2,2.8-12.3,9.7-13.5,17.2c-1.5,9.2-0.7,19.9,6.2,26.9c6.6,6.8,16.6,8.2,25.6,7.9c0.1-7.1,0-14.2,0-21.3c-5.6,0-11.1,0-16.7,0
		c0-5.6,0-11.3,0-16.9c11.2,0,22.4,0,33.6,0c0,17.2,0,34.4,0,51.5c0,1.1,0.1,3.2-1.7,2.8c-12.9,0-26.1,0.7-38.5-3.3
		c-8.3-2.7-16-7.9-20.5-15.6c-6-10.2-6.7-22.6-5.2-34C736.9,910.9,743.3,900.3,753.3,894.9z"/>
</g>
</svg>
