<?xml version="1.0" encoding="utf-8"?>
<!-- Generator: Adobe Illustrator 21.0.0, SVG Export Plug-In . SVG Version: 6.00 Build 0)  -->
<svg version="1.1" id="Layer_1" xmlns="http://www.w3.org/2000/svg" xmlns:xlink="http://www.w3.org/1999/xlink" x="0px" y="0px"
	 viewBox="0 0 917.522 565.081" style="enable-background:new 0 0 917.522 565.081;" xml:space="preserve">
<style type="text/css">
	.st0{fill:#14191C;}
	.st1{fill:#FFFFFF;}
	.st2{fill:#00B09B;}
	.st3{fill:#007565;}
	.st4{fill:#5A6771;}
	.st5{fill:#C2C6CA;}
</style>
<g id="_x23_14191cff">
	<path class="st0" d="M349.58,36.76C389.05,13.77,434.4,1.08,480.05,0c1.01,0.01,2.02,0.12,3.02,0.33
		c-67.49,20.69-123.58,74.24-148.39,140.21c22.72-13.61,46.76-25.2,72.04-33.22c-0.01-0.19-0.03-0.57-0.04-0.76
		c-12.68-6.93-26.52-11.29-40.1-16.03c23.92-3.44,48.15-4.66,72.3-3.82c27.47,1.04,55.06,4.98,81.01,14.3
		c-4.49-7.85-11.01-14.26-17.68-20.25c19.96,3.33,39.24,10.07,57.68,18.29c53.41,23.96,98.74,64.7,129.55,114.34
		c29.68,10.94,57.98,27.94,78.22,52.62c-32.23,4.81-63.5,15.43-92.51,30.18c-28.93,14.83-55.49,34.55-77.12,58.88
		c-17.33,19.43-31.41,41.74-41.58,65.7c40.84,0.04,81.68-0.03,122.52,0.03c1.35-0.11,2.91,0.27,4.09-0.61
		c25.33-16.68,47.37-38.3,64.59-63.26c-6.95,22.53-17.31,43.94-29.87,63.86c56.02-0.02,112.04,0,168.06-0.01
		c8.06,0.03,16.56,1.99,22.71,7.49c7.4,6.5,10.48,17.14,8.27,26.67c-2.73,11.55-5.72,23.04-8.53,34.58
		c-7.57,0.05-15.14-0.04-22.7,0.03c-1.36,2.3-1.47,5.25-2.3,7.82c7.7,0,15.41-0.02,23.12,0c-3.5,13.85-7.01,27.7-10.54,41.54
		c-1.79,7.16-6,13.67-11.88,18.14c-7.62,6.04-17.58,7.96-27.1,7.9c-127,0-254,0-380.99,0c-11.19,0.6-23.49-0.62-32.03-8.69
		c-3.64,2.87-7.74,5.2-12.18,6.56c-7.67,2.61-15.86,1.27-23.79,1.7c-132.64,0.32-265.28,0.42-397.92,0.42
		c5.69-22.53,11.25-45.09,17.02-67.59c6.04,0.03,12.08,0.03,18.12,0c-4.89-4.38-10.01-8.49-15-12.75c2.86-11.77,6-23.47,8.82-35.25
		C25.91,439.89,12.9,430.43,0,420.81c85.33-0.06,170.66-0.03,255.99-0.01c-20.69-32.59-34.52-69.53-39.96-107.76
		c-7.44-50.73-0.33-103.53,20.59-150.36C259.81,110.23,299.94,65.48,349.58,36.76 M392.83,141.9c-8.56,4.01-17.37,7.93-24.89,13.73
		c0.57-0.27,1.14-0.56,1.7-0.86c4.76,0.13,9.44-1.1,14.18-1.46c26.28-2.9,52.95-3.57,79.21-0.04c-7.87,6.7-15.04,14.18-21.65,22.12
		c-18.97,22.87-33.8,49.14-44.01,77.01l-0.24-0.25c-0.87,2.21-1.64,4.47-2.2,6.78c17.72-20.66,37.89-39.32,60.4-54.68
		c27.9-19.04,60.42-33.16,94.64-33.72c-1.73-2.49-4.64-3.8-6.99-5.61c-3.87-2.29-7.61-5.42-12.2-5.99c-0.71-0.6-1.43-1.18-2.16-1.74
		c16.68-1.74,33.57-1.98,50.21,0.3c8.88,0.96,17.47,3.45,26.17,5.25c1.02,0.49,2.11,0.83,3.21,1.18
		c-14.44-9.54-30.28-16.87-46.56-22.69c-23.32-8.19-48.33-12.44-73.04-9.93c3.6-4.15,7.99-7.52,12.78-10.2
		C464.36,120.92,426.92,127.11,392.83,141.9 M560.64,214.72c4.06,0.15,9.21-1.05,12.39,2.1c0.37,8.04,4.06,16.77,11.94,20
		c8.39,3.27,18.03,2.04,26.25-1.19c-7.34-2.48-11.1-11.22-8.24-18.35c1.75,1.13,3.72,2.31,5.92,1.91c3.53-0.43,6.23-3.99,5.63-7.51
		C597.31,204.09,577.34,207.32,560.64,214.72 M617.4,216.45c-2.16,1.69,1.2,4.9,2.86,2.79C622.06,217.52,619.07,214.51,617.4,216.45
		 M683.67,230.87c1.85,8.52,3.19,17.18,3.36,25.91c-0.07,0.24-0.22,0.73-0.29,0.97c5.15-0.2,10.31-0.19,15.46-0.06
		c-4.34,4.45-10.21,7.11-14.8,11.32c12.47-3.13,24.87-6.58,37.49-9.06c3.21-0.74,6.54-0.98,9.62-2.21l0.46,0.27
		c2.27-0.36,4.55-0.72,6.82-1.14C723.48,246.07,704.09,236.88,683.67,230.87 M442.08,315.81c17.15-8.25,34.98-15.62,53.82-18.9
		c-14.43,13.02-26.52,28.44-37.31,44.55c-4.98,7.83-10.28,15.57-14.13,24.03c-4.63,7.88-8.6,16.2-12.42,24.52
		c12.55-21.95,27.93-42.28,45.54-60.42c20.11-20.57,43.46-38.3,69.75-50.18c0.9-0.53,2.22-0.71,2.63-1.81
		c-19.92-2.52-40.35-0.96-59.64,4.59c5.54-8.91,12.5-16.85,19.99-24.17l0.36-0.11c2.06-1.96,4.14-3.9,6.25-5.82
		C487.01,266.4,461.86,289.43,442.08,315.81 M632,271.96c1.51,1.01,2.94,2.18,4.2,3.51c-11.02,0.39-22.23,1.82-32.38,6.35
		c-1.46,0.71-3.08,1.27-4.11,2.58c2.2,0.7,4.43,1.51,6.07,3.23c-34.3,23.31-57.22,62.04-62.46,103.06c0.7-1.29,1.66-2.52,1.99-3.96
		c26.89-48.83,71.32-87.12,122.39-108.97c-2.17-0.53-4.1-1.81-6.3-2.14C652.14,271.89,641.88,271.19,632,271.96 M53.28,438.15
		c3.89,3.33,4.24,9.09,3.05,13.75c-2.23,8.78-4.43,17.57-6.68,26.35c13.28,11.23,26.6,22.41,39.89,33.63
		c-1.37,3.58-0.47,9.29-4.71,10.94c-6.06,0.49-12.17,0.08-18.25,0.21c0.69-2.75,1.37-5.5,2.04-8.24
		c-9.35-0.02-18.71,0.01-28.06-0.02c-2.8,10.91-5.47,21.85-8.26,32.76c19.21,0,38.43,0.01,57.65,0c5.65-0.11,11.72-0.7,16.34-4.27
		c3.07-2.24,5.02-5.7,5.85-9.35c2.46-9.9,5.05-19.77,7.4-29.69c-13.38-11.02-26.65-22.16-39.97-33.24c0.7-2.85,1.43-5.69,2.16-8.53
		c6.05,0.12,12.12-0.24,18.16,0.18c3.26,2.13-0.2,6.49-0.36,9.48c9.36,0.01,18.73,0.01,28.09,0c1.66-6.67,3.34-13.34,4.97-20.01
		c0.85-3.38,0.52-7.28-1.85-9.99c-2.68-3.05-7-3.69-10.84-3.88C97.69,438.12,75.49,438.29,53.28,438.15 M147.27,438.15
		c2.88,2.26,5.05,5.96,3.86,9.71c-8.31,33.23-16.66,66.44-24.97,99.67c11.55,0.04,23.1-0.07,34.65,0.06
		c-3.09-2.04-5.27-5.92-4.09-9.63c8.3-33.25,16.56-66.5,24.88-99.75C170.16,438.15,158.71,438.27,147.27,438.15 M196.35,438.15
		c2.95,2.17,5.13,5.88,3.97,9.63c-8.31,33.25-16.66,66.5-25,99.75c19.19,0.01,38.38,0,57.56,0c4.75-0.1,9.71-0.41,13.99-2.68
		c3.9-2.04,6.94-5.69,8.01-9.98c1.73-6.67,3.32-13.38,4.97-20.07c-9.31-0.04-18.63-0.01-27.94-0.02c-0.97,2.6-0.62,6.32-3.1,7.95
		c-6.37,0.66-12.81,0.13-19.21,0.3c7.04-28.28,14.11-56.55,21.16-84.83C219.29,438.16,207.82,438.27,196.35,438.15 M285.53,438.14
		c2.93,2.23,5.11,5.96,3.92,9.72c-8.34,33.22-16.65,66.45-24.99,99.67c11.52,0.05,23.05-0.09,34.58,0.07
		c-3.03-2.15-5.26-6.02-3.98-9.76c2.7-10.96,5.45-21.91,8.14-32.87c6.75-0.05,13.5-0.01,20.25-0.02
		c-3.52,14.2-7.14,28.38-10.61,42.59c11.42,0.03,22.85-0.09,34.28,0.06c-2.75-2.14-5.01-5.63-3.94-9.23
		c8.36-33.37,16.7-66.75,25.07-100.12c-11.54-0.15-23.08,0.05-34.62-0.11c2.58,2.12,5.07,5.26,4.21,8.84
		c-2.71,11.25-5.59,22.47-8.34,33.71c-6.75,0.01-13.5,0-20.25,0.01c3.53-14.17,7.12-28.33,10.64-42.5
		C308.44,438.17,296.98,438.27,285.53,438.14 M378.91,438.13c3.85,2.9,4.48,8.34,3.44,12.75c-6.88,27.73-13.89,55.42-20.74,83.15
		c-1,3.83-0.03,8.42,3.29,10.86c3.17,2.22,7.21,2.59,10.98,2.65c13.03-0.01,26.06-0.01,39.09,0c6.38-0.02,13.46-0.61,18.32-5.25
		c3.86-3.29,4.75-8.51,5.91-13.17c6.35-25.21,12.67-50.42,19.05-75.62c0.92-3.31,1.24-7.12-0.69-10.13
		c-2.35-3.97-7.33-4.95-11.58-5.13C423.63,438.09,401.26,438.33,378.91,438.13 M468.74,438.11c4.07,2.05,4.99,7.36,3.87,11.41
		c-6.58,26.46-13.18,52.92-19.74,79.39c-1.06,4.41-1.27,9.61,1.76,13.32c3.17,3.89,8.43,5.19,13.25,5.29
		c20.99,0.08,41.98-0.1,62.97,0.09c-3.07-2.6-4.54-6.9-3.59-10.82c8.21-32.87,16.47-65.73,24.7-98.59
		c-11.46-0.06-22.93,0.12-34.39-0.09c4.25,2.65,4.87,8,3.06,12.33c-6.07,24.13-12.16,48.26-18.18,72.4
		c-5.55,0.01-11.1,0.09-16.65-0.02c-1.47,0.1-3.32-1.4-2.71-2.98c6.69-27.23,13.59-54.42,20.39-81.63
		C491.9,438.12,480.32,438.33,468.74,438.11 M565.89,438.14c3.79,3.39,4.24,9.08,3,13.74c-7.95,31.89-15.93,63.77-23.87,95.65
		c17.96,0.01,35.92,0,53.88,0.01c5.27-0.01,10.74,0.1,15.74-1.82c4.75-1.8,8.69-5.83,9.92-10.81c1.68-6.73,3.6-13.4,5-20.18
		c-9.32,0.12-18.64,0.02-27.96,0.05c-0.91,2.6-0.74,5.93-2.87,7.91c-6.44,0.75-12.97,0.15-19.43,0.33
		c1.45-6.03,2.98-12.05,4.47-18.07c8.42,0,16.84,0,25.26,0c2.07-8.08,4.1-16.17,6.17-24.25c-8.46-0.01-16.93,0-25.39,0
		c1.51-6.09,3.07-12.17,4.62-18.25c5.49,0.02,10.98-0.04,16.48,0.01c1.48-0.19,3.41,0.66,3.11,2.47c-0.42,2.44-1.19,4.79-1.79,7.19
		c9.35,0,18.71-0.02,28.06,0.01c1.72-6.75,3.41-13.5,5.05-20.27c0.93-3.69,0.23-8.04-2.77-10.62c-2.95-2.45-6.98-2.91-10.67-3.03
		C609.9,438.14,587.89,438.29,565.89,438.14 M652.21,438.13c1.48,1.3,2.76,2.92,3.17,4.92c1.94,6.61-1.68,12.98-2.62,19.43
		c7.74-0.06,15.48-0.03,23.23-0.02c-7.06,28.37-14.25,56.69-21.26,85.07c11.48,0.05,22.97-0.09,34.45,0.07
		c-2.93-2.22-5.18-6.04-3.89-9.77c6.27-25.13,12.55-50.25,18.8-75.37c16-0.02,31.99-0.01,47.99-0.01
		c-7.04,28.38-14.33,56.69-21.21,85.1c11.38-0.02,22.77-0.05,34.15,0.02c-2.63-2.36-4.91-5.94-3.68-9.59
		c6.26-25.17,12.58-50.33,18.82-75.51c8.34-0.05,16.68,0,25.02-0.02c1.96-8.09,3.93-16.17,5.89-24.25
		C758.11,438.15,705.16,438.29,652.21,438.13 M820.08,438.13c3.92,3.13,4.3,8.83,3.23,13.39c-7.99,32-15.98,64-23.97,96.01
		c18.87,0.01,37.73-0.01,56.6,0.01c4.6-0.06,9.37-0.22,13.66-2.08c4.45-1.88,8.08-5.78,9.27-10.51c1.78-6.7,3.44-13.44,5.14-20.16
		c-9.37-0.01-18.74-0.01-28.1-0.01c-0.98,2.6-0.58,6.43-3.17,7.97c-6.35,0.63-12.77,0.12-19.14,0.28
		c1.51-6.02,2.98-12.06,4.49-18.07c8.45-0.07,16.9,0.1,25.35-0.1c1.92-8.08,4.09-16.1,6.07-24.16c-8.47-0.01-16.93,0.02-25.4-0.02
		c1.57-6.07,3.09-12.16,4.64-18.23c5.05,0,10.1,0,15.16-0.01c1.48,0.1,3.79-0.36,4.36,1.56c0.14,2.78-1.19,5.41-1.73,8.11
		c9.38,0,18.75,0.02,28.13-0.01c1.11-4.67,2.32-9.32,3.46-13.98c0.99-4.54,3.15-9.53,0.91-14.04c-2.11-4.6-7.65-5.71-12.2-5.85
		C864.58,438.11,842.33,438.32,820.08,438.13z"/>
	<path class="st0" d="M393.13,519.89c4.77-19.16,9.62-38.3,14.46-57.44c5.76,0.06,11.52-0.11,17.28,0.07
		c1.79-0.11,2.77,1.9,2.15,3.43c-4.45,17.99-9,35.95-13.49,53.93c-0.41,1.32-0.88,3.23-2.62,3.23c-5.31,0.33-10.66,0.2-15.97,0.09
		C393.25,523.18,392.51,521.26,393.13,519.89z"/>
</g>
<g id="_x23_ffffffff">
	<path class="st1" d="M392.83,141.9c34.09-14.79,71.53-20.98,108.56-20.8c-4.79,2.68-9.18,6.05-12.78,10.2
		c24.71-2.51,49.72,1.74,73.04,9.93c16.28,5.82,32.12,13.15,46.56,22.69c-1.1-0.35-2.19-0.69-3.21-1.18
		c-14.8-7.03-30.46-12.17-46.25-16.46c-31.6-8.27-65.31-11.76-97.34-3.86c4.31-4.21,9.56-7.19,14.76-10.14
		c-24.87-0.57-49.77,3.15-73.66,10c-11.21,3.39-22.41,7.14-32.87,12.49c-0.56,0.3-1.13,0.59-1.7,0.86
		C375.46,149.83,384.27,145.91,392.83,141.9z"/>
	<path class="st1" d="M560.64,214.72c16.7-7.4,36.67-10.63,53.89-3.04c0.6,3.52-2.1,7.08-5.63,7.51c-2.2,0.4-4.17-0.78-5.92-1.91
		c-2.86,7.13,0.9,15.87,8.24,18.35c-8.22,3.23-17.86,4.46-26.25,1.19c-7.88-3.23-11.57-11.96-11.94-20
		C569.85,213.67,564.7,214.87,560.64,214.72z"/>
	<path class="st1" d="M617.4,216.45c1.67-1.94,4.66,1.07,2.86,2.79C618.6,221.35,615.24,218.14,617.4,216.45z"/>
	<path class="st1" d="M683.67,230.87c20.42,6.01,39.81,15.2,58.12,26c-2.27,0.42-4.55,0.78-6.82,1.14l-0.46-0.27
		c-14.1-8.13-29.05-14.76-44.44-20.03c-0.28,6.43-0.87,12.96-3.04,19.07C686.86,248.05,685.52,239.39,683.67,230.87z"/>
	<path class="st1" d="M506.02,260.16c1.24-1.05,2.71-1.75,4.29-2.14c-7.49,7.32-14.45,15.26-19.99,24.17
		c19.29-5.55,39.72-7.11,59.64-4.59c-0.41,1.1-1.73,1.28-2.63,1.81c-26.29,11.88-49.64,29.61-69.75,50.18
		c-17.61,18.14-32.99,38.47-45.54,60.42c3.82-8.32,7.79-16.64,12.42-24.52c2.79-2.34,4.32-5.7,6.31-8.67
		c15.9-24.53,35.53-46.7,58.5-64.8c-15.83-0.85-31.41,3.14-46.13,8.61c2.54-4.14,5.89-7.69,9.21-11.2
		C482.67,278.69,494.27,269.27,506.02,260.16z"/>
	<path class="st1" d="M661.4,275.62c2.2,0.33,4.13,1.61,6.3,2.14c-51.07,21.85-95.5,60.14-122.39,108.97
		c-0.56-3.56,1.18-6.86,2.14-10.19c12.5-38.13,39.44-71.56,74.67-90.96c-1.92-0.77-3.88-1.44-5.79-2.19
		c9.96-4.46,21.25-3.92,31.93-3.99c-0.84-1.29-1.68-2.57-2.5-3.86C650.98,275.06,656.19,276.26,661.4,275.62z"/>
	<path class="st1" d="M53.28,438.15c22.21,0.14,44.41-0.03,66.62,0.08c3.84,0.19,8.16,0.83,10.84,3.88c2.37,2.71,2.7,6.61,1.85,9.99
		c-1.63,6.67-3.31,13.34-4.97,20.01c-9.36,0.01-18.73,0.01-28.09,0c0.16-2.99,3.62-7.35,0.36-9.48c-6.04-0.42-12.11-0.06-18.16-0.18
		c-0.73,2.84-1.46,5.68-2.16,8.53c13.32,11.08,26.59,22.22,39.97,33.24c-2.35,9.92-4.94,19.79-7.4,29.69
		c-0.83,3.65-2.78,7.11-5.85,9.35c-4.62,3.57-10.69,4.16-16.34,4.27c-19.22,0.01-38.44,0-57.65,0c2.79-10.91,5.46-21.85,8.26-32.76
		c9.35,0.03,18.71,0,28.06,0.02c-0.67,2.74-1.35,5.49-2.04,8.24c6.08-0.13,12.19,0.28,18.25-0.21c4.24-1.65,3.34-7.36,4.71-10.94
		c-13.29-11.22-26.61-22.4-39.89-33.63c2.25-8.78,4.45-17.57,6.68-26.35C57.52,447.24,57.17,441.48,53.28,438.15z"/>
	<path class="st1" d="M147.27,438.15c11.44,0.12,22.89,0,34.33,0.06c-8.32,33.25-16.58,66.5-24.88,99.75
		c-1.18,3.71,1,7.59,4.09,9.63c-11.55-0.13-23.1-0.02-34.65-0.06c8.31-33.23,16.66-66.44,24.97-99.67
		C152.32,444.11,150.15,440.41,147.27,438.15z"/>
	<path class="st1" d="M196.35,438.15c11.47,0.12,22.94,0.01,34.41,0.05c-7.05,28.28-14.12,56.55-21.16,84.83
		c6.4-0.17,12.84,0.36,19.21-0.3c2.48-1.63,2.13-5.35,3.1-7.95c9.31,0.01,18.63-0.02,27.94,0.02c-1.65,6.69-3.24,13.4-4.97,20.07
		c-1.07,4.29-4.11,7.94-8.01,9.98c-4.28,2.27-9.24,2.58-13.99,2.68c-19.18,0-38.37,0.01-57.56,0c8.34-33.25,16.69-66.5,25-99.75
		C201.48,444.03,199.3,440.32,196.35,438.15z"/>
	<path class="st1" d="M285.53,438.14c11.45,0.13,22.91,0.03,34.36,0.06c-3.52,14.17-7.11,28.33-10.64,42.5
		c6.75-0.01,13.5,0,20.25-0.01c2.75-11.24,5.63-22.46,8.34-33.71c0.86-3.58-1.63-6.72-4.21-8.84c11.54,0.16,23.08-0.04,34.62,0.11
		c-8.37,33.37-16.71,66.75-25.07,100.12c-1.07,3.6,1.19,7.09,3.94,9.23c-11.43-0.15-22.86-0.03-34.28-0.06
		c3.47-14.21,7.09-28.39,10.61-42.59c-6.75,0.01-13.5-0.03-20.25,0.02c-2.69,10.96-5.44,21.91-8.14,32.87
		c-1.28,3.74,0.95,7.61,3.98,9.76c-11.53-0.16-23.06-0.02-34.58-0.07c8.34-33.22,16.65-66.45,24.99-99.67
		C290.64,444.1,288.46,440.37,285.53,438.14z"/>
	<path class="st1" d="M378.91,438.13c22.35,0.2,44.72-0.04,67.07,0.11c4.25,0.18,9.23,1.16,11.58,5.13
		c1.93,3.01,1.61,6.82,0.69,10.13c-6.38,25.2-12.7,50.41-19.05,75.62c-1.16,4.66-2.05,9.88-5.91,13.17
		c-4.86,4.64-11.94,5.23-18.32,5.25c-13.03-0.01-26.06-0.01-39.09,0c-3.77-0.06-7.81-0.43-10.98-2.65
		c-3.32-2.44-4.29-7.03-3.29-10.86c6.85-27.73,13.86-55.42,20.74-83.15C383.39,446.47,382.76,441.03,378.91,438.13 M393.13,519.89
		c-0.62,1.37,0.12,3.29,1.81,3.31c5.31,0.11,10.66,0.24,15.97-0.09c1.74,0,2.21-1.91,2.62-3.23c4.49-17.98,9.04-35.94,13.49-53.93
		c0.62-1.53-0.36-3.54-2.15-3.43c-5.76-0.18-11.52-0.01-17.28-0.07C402.75,481.59,397.9,500.73,393.13,519.89z"/>
	<path class="st1" d="M468.74,438.11c11.58,0.22,23.16,0.01,34.74,0.1c-6.8,27.21-13.7,54.4-20.39,81.63
		c-0.61,1.58,1.24,3.08,2.71,2.98c5.55,0.11,11.1,0.03,16.65,0.02c6.02-24.14,12.11-48.27,18.18-72.4
		c1.81-4.33,1.19-9.68-3.06-12.33c11.46,0.21,22.93,0.03,34.39,0.09c-8.23,32.86-16.49,65.72-24.7,98.59
		c-0.95,3.92,0.52,8.22,3.59,10.82c-20.99-0.19-41.98-0.01-62.97-0.09c-4.82-0.1-10.08-1.4-13.25-5.29
		c-3.03-3.71-2.82-8.91-1.76-13.32c6.56-26.47,13.16-52.93,19.74-79.39C473.73,445.47,472.81,440.16,468.74,438.11z"/>
	<path class="st1" d="M565.89,438.14c22,0.15,44.01,0,66.01,0.07c3.69,0.12,7.72,0.58,10.67,3.03c3,2.58,3.7,6.93,2.77,10.62
		c-1.64,6.77-3.33,13.52-5.05,20.27c-9.35-0.03-18.71-0.01-28.06-0.01c0.6-2.4,1.37-4.75,1.79-7.19c0.3-1.81-1.63-2.66-3.11-2.47
		c-5.5-0.05-10.99,0.01-16.48-0.01c-1.55,6.08-3.11,12.16-4.62,18.25c8.46,0,16.93-0.01,25.39,0c-2.07,8.08-4.1,16.17-6.17,24.25
		c-8.42,0-16.84,0-25.26,0c-1.49,6.02-3.02,12.04-4.47,18.07c6.46-0.18,12.99,0.42,19.43-0.33c2.13-1.98,1.96-5.31,2.87-7.91
		c9.32-0.03,18.64,0.07,27.96-0.05c-1.4,6.78-3.32,13.45-5,20.18c-1.23,4.98-5.17,9.01-9.92,10.81c-5,1.92-10.47,1.81-15.74,1.82
		c-17.96-0.01-35.92,0-53.88-0.01c7.94-31.88,15.92-63.76,23.87-95.65C570.13,447.22,569.68,441.53,565.89,438.14z"/>
	<path class="st1" d="M652.21,438.13c52.95,0.16,105.9,0.02,158.86,0.07c-1.96,8.08-3.93,16.16-5.89,24.25
		c-8.34,0.02-16.68-0.03-25.02,0.02c-6.24,25.18-12.56,50.34-18.82,75.51c-1.23,3.65,1.05,7.23,3.68,9.59
		c-11.38-0.07-22.77-0.04-34.15-0.02c6.88-28.41,14.17-56.72,21.21-85.1c-16,0-31.99-0.01-47.99,0.01
		c-6.25,25.12-12.53,50.24-18.8,75.37c-1.29,3.73,0.96,7.55,3.89,9.77c-11.48-0.16-22.97-0.02-34.45-0.07
		c7.01-28.38,14.2-56.7,21.26-85.07c-7.75-0.01-15.49-0.04-23.23,0.02c0.94-6.45,4.56-12.82,2.62-19.43
		C654.97,441.05,653.69,439.43,652.21,438.13z"/>
	<path class="st1" d="M820.08,438.13c22.25,0.19,44.5-0.02,66.76,0.1c4.55,0.14,10.09,1.25,12.2,5.85c2.24,4.51,0.08,9.5-0.91,14.04
		c-1.14,4.66-2.35,9.31-3.46,13.98c-9.38,0.03-18.75,0.01-28.13,0.01c0.54-2.7,1.87-5.33,1.73-8.11c-0.57-1.92-2.88-1.46-4.36-1.56
		c-5.06,0.01-10.11,0.01-15.16,0.01c-1.55,6.07-3.07,12.16-4.64,18.23c8.47,0.04,16.93,0.01,25.4,0.02
		c-1.98,8.06-4.15,16.08-6.07,24.16c-8.45,0.2-16.9,0.03-25.35,0.1c-1.51,6.01-2.98,12.05-4.49,18.07
		c6.37-0.16,12.79,0.35,19.14-0.28c2.59-1.54,2.19-5.37,3.17-7.97c9.36,0,18.73,0,28.1,0.01c-1.7,6.72-3.36,13.46-5.14,20.16
		c-1.19,4.73-4.82,8.63-9.27,10.51c-4.29,1.86-9.06,2.02-13.66,2.08c-18.87-0.02-37.73,0-56.6-0.01
		c7.99-32.01,15.98-64.01,23.97-96.01C824.38,446.96,824,441.26,820.08,438.13z"/>
</g>
<g id="_x23_00b09bff">
	<path class="st2" d="M402.51,142.28c23.89-6.85,48.79-10.57,73.66-10c-5.2,2.95-10.45,5.93-14.76,10.14
		c32.03-7.9,65.74-4.41,97.34,3.86c15.79,4.29,31.45,9.43,46.25,16.46c-8.7-1.8-17.29-4.29-26.17-5.25
		c-16.64-2.28-33.53-2.04-50.21-0.3c0.73,0.56,1.45,1.14,2.16,1.74c1.65,1.65,3.15,3.45,4.64,5.25
		c-32.81,6.69-64.61,19.66-91.44,39.9c-18.13,13.42-33.46,30.35-45.77,49.2l-0.84-0.88c10.21-27.87,25.04-54.14,44.01-77.01
		c6.61-7.94,13.78-15.42,21.65-22.12c-26.26-3.53-52.93-2.86-79.21,0.04c-4.74,0.36-9.42,1.59-14.18,1.46
		C380.1,149.42,391.3,145.67,402.51,142.28z"/>
</g>
<g id="_x23_007565ff">
	<path class="st3" d="M530.78,158.93c4.59,0.57,8.33,3.7,12.2,5.99c2.35,1.81,5.26,3.12,6.99,5.61
		c-34.22,0.56-66.74,14.68-94.64,33.72c-22.51,15.36-42.68,34.02-60.4,54.68c0.56-2.31,1.33-4.57,2.2-6.78l0.24,0.25l0.84,0.88
		c12.31-18.85,27.64-35.78,45.77-49.2c26.83-20.24,58.63-33.21,91.44-39.9C533.93,162.38,532.43,160.58,530.78,158.93z"/>
</g>
<g id="_x23_5a6771ff">
	<path class="st4" d="M690.07,237.71c15.39,5.27,30.34,11.9,44.44,20.03c-3.08,1.23-6.41,1.47-9.62,2.21
		c-12.62,2.48-25.02,5.93-37.49,9.06c4.59-4.21,10.46-6.87,14.8-11.32c-5.15-0.13-10.31-0.14-15.46,0.06
		c0.07-0.24,0.22-0.73,0.29-0.97C689.2,250.67,689.79,244.14,690.07,237.71z"/>
</g>
<g id="_x23_c2c6caff">
	<path class="st5" d="M442.08,315.81c19.78-26.38,44.93-49.41,74.84-63.72c-2.11,1.92-4.19,3.86-6.25,5.82l-0.36,0.11
		c-1.58,0.39-3.05,1.09-4.29,2.14c-11.75,9.11-23.35,18.53-33.67,29.27c-3.32,3.51-6.67,7.06-9.21,11.2
		c14.72-5.47,30.3-9.46,46.13-8.61c-22.97,18.1-42.6,40.27-58.5,64.8c-1.99,2.97-3.52,6.33-6.31,8.67
		c3.85-8.46,9.15-16.2,14.13-24.03c10.79-16.11,22.88-31.53,37.31-44.55C477.06,300.19,459.23,307.56,442.08,315.81z"/>
	<path class="st5" d="M632,271.96c9.88-0.77,20.14-0.07,29.4,3.66c-5.21,0.64-10.42-0.56-15.64-0.08c0.82,1.29,1.66,2.57,2.5,3.86
		c-10.68,0.07-21.97-0.47-31.93,3.99c1.91,0.75,3.87,1.42,5.79,2.19c-35.23,19.4-62.17,52.83-74.67,90.96
		c-0.96,3.33-2.7,6.63-2.14,10.19c-0.33,1.44-1.29,2.67-1.99,3.96c5.24-41.02,28.16-79.75,62.46-103.06
		c-1.64-1.72-3.87-2.53-6.07-3.23c1.03-1.31,2.65-1.87,4.11-2.58c10.15-4.53,21.36-5.96,32.38-6.35
		C634.94,274.14,633.51,272.97,632,271.96z"/>
</g>
</svg>
