<?xml version="1.0" encoding="utf-8"?>
<!-- Generator: Adobe Illustrator 23.0.0, SVG Export Plug-In . SVG Version: 6.00 Build 0)  -->
<svg version="1.1" id="Layer_1" xmlns="http://www.w3.org/2000/svg" xmlns:xlink="http://www.w3.org/1999/xlink" x="0px" y="0px"
	 viewBox="0 0 732.3 732.3" style="enable-background:new 0 0 732.3 732.3;" xml:space="preserve">
<style type="text/css">
	.st0{fill:#D0CFD0;stroke:#C8CED1;stroke-width:9.380000e-02;}
	.st1{stroke:#000000;stroke-width:9.380000e-02;}
	.st2{fill:#FFFFFF;stroke:#000000;stroke-width:9.380000e-02;}
	.st3{fill:#B3BABE;stroke:#B3BABE;stroke-width:9.380000e-02;}
	.st4{fill:#FFFFFF;stroke:#FFFFFF;stroke-width:9.380000e-02;}
	.st5{fill:#CD1342;stroke:#CD1342;stroke-width:9.380000e-02;}
	.st6{fill:#C3CDD2;stroke:#C3CDD2;stroke-width:9.380000e-02;}
</style>
<path class="st0" d="M603.6,116.1c42.8-0.1,85.7-0.4,128.5-0.4c-14.4,10.2-29.1,20.1-43.1,30.9c-15.4,11.7-30.2,24.1-44.6,36.9
	c14,32.2,29.4,63.8,45.1,95.3c-10.9-5.6-22-10.9-32.8-16.6c1.5,16.8-2.2,34-10.2,48.9c-9.2,17-23.2,31.6-40,41.2
	c-6,3.5-12.4,6.4-18.9,8.9c-5.9,11.9-9.8,25.1-19.3,34.7c-16.6,18-41.6,25.7-65.5,26.4c0.4,7,0.7,14.1,1.5,21.1
	c0.7,7-1.5,14.2-5.7,19.8c-2.6,3.6-6.2,6.5-9.6,9.3c-9,7.4-18,14.7-27.1,22c-2.1,1.6-3.5,3.8-5,5.8c-4,5.3-8,10.6-11.9,16
	c5.4,7.1,10.8,14.2,16.2,21.3c-3.8,5.5-7.7,11.1-11.5,16.6c-7.9,11.6-18.4,21.2-29.3,29.9c0.7,6.7,1.3,13.4,2,20.1
	c-7.6,3.7-14.9,7.7-22.6,11.1c-20,8-42.5,9.8-63.5,4.8c-11.6-2.7-22.2-8.1-33.2-12.5c-0.1-7-0.2-14-0.4-21
	c-12.8-14.6-25.6-29.3-38.5-44c2.1-4,4.1-8,6.2-12c-8.5-11.8-17.1-23.5-25.6-35.2c2.9-3.3,5.9-6.7,8.8-10
	c-11.9-9.1-23.8-18.4-35.8-27.5c-0.1-12.7,0-25.4,0-38.1c-19.2-0.5-38.9-3.8-55.6-13.8c-8.8-5.3-16.5-12.5-21.7-21.4
	c-4.6-7.7-5.8-16.8-8.4-25.3c-23.2-9.5-43.9-26.5-54.8-49.4c-11.8-24.2-12.2-53.4-2-78.2c-20.7-3.5-41.3-7.5-61.9-11.7
	c6.1-14,12.2-28.1,18.1-42.3c-10.4-0.8-20.8-1.6-31.2-2.5c12.5-11.3,25.2-22.4,37.1-34.3c8.2-7.9,15.6-16.6,23.2-25.1
	c124.4,0.5,248.9,0.3,373.3,0.4C490.3,115.9,547,116.4,603.6,116.1 M64.7,125.2c-12.8,15-27,28.8-41.6,42.1
	c7.3,0.8,14.6,1.1,21.9,1.8c-5.9,14.7-12.1,29.3-18.4,43.8c21.2,4.2,42.4,8.1,63.7,11.5c-5.8,7.9-9.7,17.1-11.3,26.8
	c-4.1,20.8-0.8,43.2,10.3,61.3c11.5,19.1,30.6,32.6,51.4,39.9c-0.1,0.4-0.2,1.1-0.3,1.5c1,5.2,2.8,10.2,4,15.4
	c3,13.5,13.8,24,25.7,30.3c17.4,9.1,37.6,10.9,57,10.7c-0.1,14.3,0,28.5,0,42.8c10.1,7.8,20.2,15.6,30.3,23.3c3.3,2.5,6,5.7,8.9,8.6
	c-3.2,3.6-6.4,7.2-9.6,10.9c8.2,11.2,16.3,22.5,24.5,33.7c-1.9,3.9-3.9,7.7-5.9,11.6c12.2,13.9,24.3,27.8,36.5,41.7
	c0.2,6,0.2,12.1,0.2,18.1c8,3.3,15.9,7.1,24.4,9.2c18,4.7,37.3,3.7,54.9-2.2c7.2-2.4,13.8-6.2,20.5-9.5c-0.7-6.2-1.2-12.5-2-18.7
	c8.8-6.8,17.4-14,24.7-22.4c5.4-6.1,9.6-13,14.3-19.6c-5.5-7.2-10.9-14.3-16.3-21.5c6.9-9,13.5-18.4,20.6-27.2
	c11.1-9.2,22.5-18.1,33.5-27.4c5-4.2,8.4-10.7,7.7-17.4c-1-10.5-1.3-21-2-31.6c17.6,0.6,35.8-1.8,51.5-10.2
	c11.3-6.1,21.4-15.2,26.5-27.2c2.4-5.4,5-10.8,7.4-16.2c-2.2-0.9-4.4-1.9-6.5-2.8c15.9-4.5,31.5-11.3,44.2-22.1
	c14-12.1,25.1-28,29.6-46.1c3.8-14.8,2.6-30.5-2.6-44.8c8.4,5,17,9.8,25.7,14.1c-12.4-25.2-24.1-50.7-35.3-76.4
	c22-19.8,44.9-38.7,69-55.8c-25.1,0-50.1,0.1-75.2,0.1c-4.3,3.3-8.4,6.8-12.6,10.2c1.1-3.6,2.3-7.2,3.4-10.8
	c-6.6,0.1-13.2,0.5-19.8,0.5c-12.7-0.3-25.4,0.5-38.2,0.1c-113.6,0-227.3,0-340.9,0c-2.8-0.1-5.5,0.1-8.2,0.4
	c-17.7,0-35.4-0.1-53.1-0.3c-2.3,6.6-4.5,13.3-6.8,19.9c-2.7-6.7-5.4-13.4-8.1-20C116.6,125.3,90.7,125.2,64.7,125.2z"/>
<path class="st1" d="M64.7,125.2c26,0,51.9,0.1,77.8,0.1c2.7,6.7,5.4,13.4,8.1,20c2.3-6.6,4.5-13.3,6.8-19.9
	c17.7,0.2,35.4,0.3,53.1,0.3c112.4,0.1,224.8,0.1,337.2,0.1c16.7,0.2,33.4,0.1,50.1-0.6c6.6,0,13.2-0.4,19.8-0.5
	c-1.1,3.6-2.3,7.2-3.4,10.8c4.2-3.4,8.4-6.9,12.6-10.2c25.1,0,50.1-0.1,75.2-0.1c-24.1,17.1-47,36-69,55.8
	c11.2,25.7,23,51.2,35.3,76.4c-8.8-4.3-17.3-9.1-25.7-14.1c5.2,14.2,6.5,30,2.6,44.8c-4.5,18.1-15.6,34-29.6,46.1
	c-12.7,10.8-28.3,17.5-44.2,22.1c2.2,0.9,4.3,1.9,6.5,2.8c-2.4,5.4-5,10.8-7.4,16.2c-5.1,11.9-15.2,21.1-26.5,27.2
	c-15.7,8.4-33.9,10.8-51.5,10.2c0.8,10.5,1,21.1,2,31.6c0.7,6.7-2.7,13.1-7.7,17.4c-11,9.4-22.5,18.2-33.5,27.4
	c-7.2,8.8-13.7,18.2-20.6,27.3c5.4,7.2,10.9,14.3,16.3,21.5c-4.7,6.6-8.9,13.6-14.3,19.6c-7.4,8.4-15.9,15.6-24.7,22.4
	c0.8,6.2,1.3,12.5,2,18.7c-6.8,3.3-13.4,7.1-20.5,9.5c-17.6,5.9-36.9,7-54.9,2.2c-8.5-2.1-16.3-5.9-24.4-9.2c-0.1-6,0-12.1-0.2-18.1
	c-12.2-13.9-24.3-27.8-36.5-41.7c2-3.9,4-7.7,5.9-11.6c-8.2-11.2-16.4-22.5-24.5-33.7c3.2-3.6,6.4-7.2,9.6-10.9
	c-2.9-2.9-5.6-6.1-8.9-8.6c-10.1-7.8-20.2-15.5-30.4-23.3c0-14.3-0.1-28.5,0-42.8c-19.4,0.2-39.5-1.6-57-10.7
	c-12-6.3-22.7-16.7-25.7-30.3c-1.2-5.1-3-10.2-4-15.4c0.1-0.4,0.2-1.1,0.3-1.5c-20.8-7.3-39.9-20.8-51.4-39.9
	c-11.1-18.1-14.5-40.5-10.3-61.3c1.6-9.7,5.5-18.9,11.3-26.8c-21.3-3.4-42.5-7.3-63.7-11.5c6.3-14.5,12.5-29.1,18.4-43.8
	c-7.3-0.7-14.6-1-21.9-1.8C37.7,154,51.9,140.2,64.7,125.2"/>
<path class="st1" d="M59.3,150.7c-2.2,2.7-5.6,3.9-8.5,5.6c4.3,0.4,8.6,0.5,12.9,0.9c-6.1,15.4-12.2,30.8-18.6,46.2
	c25.2,4,50.4,7.8,75.8,10.8c7.2-5.3,13.8-11.4,20.6-17.1c-5.1-8-10.4-16-15.6-24c5.6-4.6,11.1-9.1,16.6-13.8
	c-2.5-6.3-5-12.5-7.6-18.8c-21.7-0.5-43.3-1-64.9-1.5C66.4,142.9,62.8,146.8,59.3,150.7"/>
<path class="st1" d="M593.7,171.2c-1.1,1.2-2.7,1.5-4.3,1.7c3.2-11,6.7-21.9,10-32.8c-8,0.3-16.1,0.6-24.1,1
	c-8.3,26.3-16.3,52.7-24.2,79.1c9.3-5.2,18.8-10.2,28.1-15.3c2.5-7.3,5-14.6,7.4-21.9c17.1,14.8,34.8,29,53.2,42.1
	c-7.9-15.6-15.5-31.4-23-47.2c14.9-13.5,30.1-26.7,45.9-39.1c-10.7,0.5-21.4,0.3-32.1,1C617.9,149.6,605.8,160.5,593.7,171.2"/>
<path class="st1" d="M165.6,141.1c-8.4,25.2-17.1,50.3-25.9,75.4c17.6,1.9,35.2,3.7,52.9,5.2c5.9-6.9,11.8-13.8,17.6-20.8
	c-12.9-0.8-25.9-1.7-38.8-2.6c0.9-2.2,1.8-4.5,2.6-6.7c9.6,0.6,19.2,1.3,28.8,1.7c5.7-7,11.3-14.1,17-21.2
	c-13.1-0.5-26.2-0.9-39.3-1.6c0.8-2.3,1.7-4.6,2.5-6.9c11.6,0.1,23.2,0.9,34.8,1c6.3-6.9,11.7-14.9,17.6-22.2
	C212.1,142,188.9,141.6,165.6,141.1"/>
<path class="st1" d="M214.9,224.7c9.8-4.1,19.5-8.3,29.1-12.7c4.6-15.3,9.3-30.5,13.8-45.8c7.6,0,15.2,0.5,22.9,0.4
	c1.9,0,3.9,0,5.7,0.6c-10.4,9-21.4,17.3-32.2,25.8c16.6,18.8,33,37.6,49.5,56.5c-6.1-17.3-12.4-34.5-18.5-51.8
	c12.5-10.7,25-21.6,37.3-32.6c-2.1-7.4-4.3-14.8-6.5-22.3c-25.2-0.4-50.4-0.4-75.6-0.9C232.1,169.7,223.6,197.3,214.9,224.7"/>
<path class="st1" d="M343.2,142.8c-5.9,7.8-11.8,15.6-17.7,23.4c10,0.1,20,0.1,29.9,0.1c-13.8,15-27.7,29.9-41.8,44.7
	c-0.8,0.7-1.2,1.6-1.5,2.6c-1.4,5-2.6,10-3.9,15c18.9,0.3,37.7,0.8,56.5,0.6c6-7.9,11.9-15.9,17.9-23.8c-11.4,0.1-22.9,0.1-34.3,0
	c14.7-15.2,29.4-30.4,44.1-45.6c1.3-1.5,3.1-2.7,3.7-4.7c1.3-4.5,2.4-9,3.6-13.5C380.8,142.3,362,142.4,343.2,142.8"/>
<path class="st1" d="M407.4,142.7c-8.4,28.8-16.8,57.5-25.2,86.3c17.7-0.2,35.5-0.6,53.2-1.2c5.8-7.9,11.6-15.9,17.4-23.8
	c-13,0.4-25.9,0.7-38.9,1.1c0.8-2.5,1.7-5,2.6-7.6c9.6-0.2,19.2-0.3,28.8-0.7c5.6-7.7,11.1-15.5,16.7-23.2
	c-13.1,0.1-26.2,0.7-39.4,0.7c0.8-2.5,1.7-5.1,2.5-7.7c11.7-0.4,23.4-0.2,35.1-0.6c5.6-7.8,11.3-15.6,17-23.3
	C453.9,142.7,430.7,142.7,407.4,142.7"/>
<path class="st1" d="M457.8,228c9.6-5.4,19.2-10.8,28.8-16.2c4.5-15.5,8.9-31,13.3-46.4c9.5,0,18.9-0.9,28.4-0.6
	c-1.7,2.3-4,4-6.2,5.8c-8.6,7.1-17,14.3-25.5,21.6c16.4,16.6,33.2,32.8,50.4,48.5c-6.6-15.5-13-31-19.5-46.6
	c12.2-11,24.5-21.9,36.9-32.7c-2.2-6.7-4.5-13.4-6.7-20c-25.2,0.3-50.3,0.7-75.5,0.8C474.1,170.8,465.9,199.4,457.8,228"/>
<path class="st1" d="M588.5,216c-10.2,5.7-20.5,11.4-30.7,17.1c1.5,6.1,2.2,12.5,4.4,18.4c5,10.7,9.3,21.7,12.3,33.1
	c-7.4-6.7-13.8-14.5-21.7-20.5c-18.3,9.8-40,15.5-60.6,10.6c0.2,6.6,1.9,12.9,4,19.1c-7.6-6.5-15.1-13.1-22.6-19.7
	c-8,1.8-16,3.4-24,5.2c11.7,20.6,23.2,41.3,35.2,61.7c2.8,4.5,5.5,9.1,9.2,12.8c2.7,2.6,6.8,2.2,10,1.1c5.2-1.9,10.4-3.8,15.8-4.8
	c-5.3-13.7-11-27.3-17.7-40.4c11.4,10.8,21.5,22.8,31.8,34.6c0.3-3.9-1.3-7.4-2.7-11c4.8,2.4,9.3,5.3,14.2,7.4
	c15.7-1.5,31.2-6,45-13.5c15.8-8.7,28.5-23.4,34.1-40.7c4.9-14.9,2.5-31.7-5.3-45.2c-6.7-12.6-17.9-21.9-29.3-30.1
	C589.6,212.7,589.1,214.4,588.5,216"/>
<path class="st1" d="M105,238.5c-5.4,8.1-6.8,18.1-7.4,27.7c-0.9,18.5,6.6,37.2,20.3,49.7c16.5,15.3,38.9,22.1,60.8,24.9
	c4.2-2.3,8.4-4.6,12.6-6.8c-0.8,3.1-1.6,6.2-2.4,9.4c9.9-11.6,19.1-23.9,29.3-35.4c-3.9,13.5-7.9,27-11.8,40.5
	c7.9,3.2,15.8,6.2,23.7,9.3c5.5-8.9,11.7-17.5,16.2-27c8.9-17.9,17.9-35.8,26.9-53.7c-9.7-0.5-19.5-0.9-29.2-1.1
	c-4.8,5.9-9.7,11.8-14.7,17.5c0.7-5.4,1.5-10.9,2.2-16.3c-13.3,0.2-26.7-0.6-39.6-3.8c-7.9-2-16-5.1-21.7-11.3
	c-6.9,6.9-13.7,13.9-20.2,21.1c4.4-16.6,10.8-32.7,18.5-48c-18.3-2.2-36.6-4.4-54.8-7.2C110.5,231.3,107.5,234.7,105,238.5"/>
<path class="st1" d="M364.3,281.5c-3.7,11.1-4.2,22.9-4.9,34.5c-3.1-14.1-6.2-28.3-9.4-42.4c-8.7,0.5-17.5,0.7-26.1,1.9
	c-12.2,0.8-24.3,2.4-36.2,5c-2.3,0.6-5.1,0.9-6.7,2.9c-5.4,6-10.7,12.2-14.5,19.4c-3.3,14.8-6,29.9-12.5,43.6
	c14.3,5.8,29.6,8.8,44.5,12.4c-8.4,0.3-16.8,1.1-24.8,3.5c-6.3,1.9-12.8,5.1-15.8,11.3c21.5,10.3,43,20.4,64.5,30.7
	c0.1,24.3-1.4,48.6-5.1,72.6c-3.4,20.9-8.2,42-17.8,61c6.6,7.5,13.2,15,19.9,22.4c-2.1-7.7-4.7-15.4-5.9-23.3c0.1-4,5-4.9,8.1-5.3
	c26-1.9,52.1-2,78,1l0.1,0.1c3.8,0.7,8.8,1.3,10.7,5.2c-0.4,7.4-4,14.2-6.4,21.1c7.1-6.6,14.1-13.4,20.2-21
	c-7.9-10.5-15.9-20.9-23.8-31.4c-17.8-0.5-35.6-1.5-53.4-1.7c-0.2-0.1-0.7-0.4-1-0.5c10.9-4.5,21.7-9.1,32.5-13.6
	c5.1-2.1,10.2-4.2,15.2-6.4c-3.4-27-6.6-53.9-9-81c-0.8-9.8-1.7-19.6-1.1-29.4c6.4,10.1,12.3,20.5,18.5,30.8
	c20.3-10.8,40.5-21.6,60.8-32.4c-9.5-4.8-19.2-10.2-30.1-11c11.4-4.1,22.9-8.3,35-9.8c-4.5-17-9.3-34-15.5-50.5
	c-2.2-5.6-4.4-11.3-7.8-16.2c-1.8-2.9-5.4-3.7-8.4-4.6c-8.4-2.2-17-3.6-25.6-4.8c-12.6-1.6-25.2-3.3-37.9-2.6
	C367.9,273,365.7,277.8,364.3,281.5"/>
<path class="st1" d="M164.7,367.2c4.7,10.3,15.5,16,25.9,19c13.1,3.7,26.9,4.3,40.5,3.6c-6.5-1.7-13.1-3.2-19.5-5.5
	c-6.9-2.5-13.9-5.4-18.9-10.9c6.2-2.1,12.9-2.4,19.4-2.8c-7.6-4.5-16-10.5-25.4-8.5C179.3,363.3,172,365.2,164.7,367.2"/>
<path class="st1" d="M502.4,371.9c6.6,1.4,13.4,2.2,19.7,4.6c-2.1,2.1-4.4,3.9-7,5.2c-9.9,5-20.8,7.5-31.4,10.1
	c12.7,1.4,25.6,1.3,38-2c11.7-3.1,23.2-9.5,29.5-20.2c-10-3.5-20.7-7.2-31.4-4.8C513.7,366.3,508.1,369.4,502.4,371.9"/>
<path class="st1" d="M278.9,414.9c5.1,1,11.3,0.2,14.6-4.3c-5.8-4.1-11.7-8.2-18.1-11.3C271.8,403.9,272.5,413.1,278.9,414.9"/>
<path class="st1" d="M449.2,418.3c-0.4,16.5-0.9,33-1.5,49.4c9-7.3,18.2-14.5,27-22.1c-1.3-12.9-1.6-25.9-2.4-38.9
	C464.5,410.6,456.8,414.4,449.2,418.3"/>
<path class="st1" d="M247.3,408.4c0,11.5,0,23.1,0,34.7c8.5,6.5,17,13.1,25.5,19.6c-0.9-13.6-1.2-27.3-2.5-40.9
	C262.7,417.2,254.9,412.9,247.3,408.4"/>
<path class="st1" d="M287.2,431.4c-2.1,13.2-4,26.5-6,39.7c3.4,4.2,6.3,9.4,6,15c0,4.1-2.1,7.8-4.5,10.9c3.3,4.5,6.6,9.1,9.9,13.6
	c8-14,12.7-30.5,10.6-46.7C301.7,451.7,295.7,440.3,287.2,431.4"/>
<path class="st1" d="M420,452c-2.6,12.6,1.8,25.6,8.7,36.1c3.4-4.5,6.8-9,10.1-13.6c-2.3-14.3-4.6-28.5-6.9-42.8
	C426.2,437.2,421.5,444.1,420,452"/>
<path class="st1" d="M332.2,587.6c18.6,7.7,40.1,7.1,58.5-0.8c-0.3-2.8-0.6-5.7-0.9-8.5c-18.7,5.2-39.3,6.5-57.7-0.5
	C332.1,581.1,332.1,584.3,332.2,587.6z"/>
<path class="st2" d="M424.7,412.3c3.4,4.1,9.6,4,14.5,3.2c6.7-2.6,7.8-12.4,2.9-17.3C436.1,402.6,429.7,406.8,424.7,412.3"/>
<path class="st3" d="M210.4,125.7c2.7-0.3,5.5-0.5,8.2-0.4c113.6,0,227.3,0,340.9,0c12.7,0.4,25.4-0.4,38.2-0.1
	c-16.7,0.6-33.4,0.7-50.1,0.6C435.3,125.7,322.8,125.8,210.4,125.7z"/>
<path class="st4" d="M59.3,150.7c3.5-3.9,7.1-7.8,10.6-11.7c21.7,0.4,43.3,1,64.9,1.5c2.5,6.3,5.1,12.5,7.6,18.8
	c-5.5,4.7-11.1,9.2-16.6,13.8c5.3,8,10.5,16,15.6,24c-6.8,5.8-13.4,11.8-20.6,17.1c-25.3-2.9-50.6-6.7-75.8-10.8
	c6.4-15.3,12.5-30.7,18.6-46.2c-4.3-0.4-8.6-0.5-12.9-0.9C53.7,154.6,57.1,153.4,59.3,150.7 M83.8,171.2c7.2-1.9,14.3-3.9,21.5-6
	c-0.3-2-0.6-4-1-5.9c-5.4-0.3-10.8-0.6-16.2-0.8C86.6,162.7,85.2,166.9,83.8,171.2 M77,188.6c9.4,1.2,18.8,2.1,28.3,3.1
	c-2.3-3.5-4.8-6.8-7.1-10.3c-5.8-0.9-11.7-1.2-17.6-1.8C79.4,182.6,78.2,185.6,77,188.6z"/>
<path class="st4" d="M593.7,171.2c12.1-10.7,24.2-21.6,37.1-31.5c10.7-0.7,21.4-0.5,32.1-1c-15.8,12.4-31,25.6-45.9,39.1
	c7.5,15.8,15.1,31.6,23,47.2c-18.4-13.1-36.1-27.4-53.2-42.1c-2.5,7.3-5,14.6-7.4,21.9c-9.4,5.1-18.8,10.1-28.1,15.3
	c8-26.4,16-52.8,24.2-79.1c8-0.4,16-0.8,24.1-1c-3.3,10.9-6.8,21.8-10,32.8C590.9,172.7,592.6,172.5,593.7,171.2z"/>
<path class="st4" d="M165.6,141.1c23.2,0.4,46.5,0.9,69.7,1.3c-5.9,7.3-11.3,15.3-17.6,22.2c-11.6,0-23.2-0.9-34.8-1
	c-0.8,2.3-1.7,4.6-2.5,6.9c13.1,0.6,26.2,1.1,39.3,1.6c-5.6,7.1-11.3,14.2-17,21.2c-9.6-0.4-19.2-1.2-28.8-1.7
	c-0.9,2.2-1.8,4.5-2.6,6.7c12.9,0.9,25.9,1.8,38.8,2.6c-5.8,7-11.7,13.9-17.6,20.8c-17.6-1.5-35.3-3.4-52.9-5.2
	C148.5,191.5,157.2,166.3,165.6,141.1z"/>
<path class="st4" d="M214.9,224.7c8.7-27.5,17.2-55,25.5-82.6c25.2,0.4,50.4,0.5,75.6,0.9c2.1,7.4,4.3,14.8,6.5,22.3
	c-12.3,11-24.8,21.8-37.3,32.6c6.2,17.3,12.5,34.5,18.5,51.8c-16.5-18.9-33-37.7-49.5-56.5c10.8-8.5,21.8-16.9,32.2-25.8
	c-1.8-0.7-3.8-0.6-5.7-0.6c-7.6,0.1-15.2-0.4-22.9-0.4c-4.6,15.3-9.3,30.5-13.8,45.8C234.4,216.4,224.7,220.6,214.9,224.7z"/>
<path class="st4" d="M343.2,142.8c18.8-0.4,37.7-0.6,56.5-1.2c-1.3,4.5-2.3,9-3.6,13.5c-0.6,2-2.4,3.2-3.7,4.7
	c-14.7,15.2-29.3,30.5-44.1,45.6c11.4,0.1,22.9,0.1,34.3,0c-6,7.9-11.9,15.9-17.9,23.8c-18.9,0.1-37.7-0.3-56.5-0.6
	c1.3-5,2.6-10,3.9-15c0.2-1,0.7-1.9,1.5-2.6c14.1-14.8,28-29.7,41.8-44.7c-10,0-20-0.1-29.9-0.1
	C331.4,158.4,337.3,150.6,343.2,142.8z"/>
<path class="st4" d="M407.4,142.7c23.2,0,46.5,0,69.7-0.1c-5.7,7.8-11.3,15.5-17,23.3c-11.7,0.5-23.4,0.3-35.1,0.6
	c-0.8,2.6-1.7,5.1-2.5,7.7c13.1,0,26.2-0.6,39.4-0.7c-5.6,7.7-11.1,15.5-16.7,23.2c-9.6,0.4-19.2,0.5-28.8,0.7
	c-0.9,2.5-1.8,5-2.6,7.6c13-0.4,25.9-0.7,38.9-1.1c-5.8,7.9-11.6,15.9-17.4,23.8c-17.7,0.7-35.5,1-53.2,1.2
	C390.6,200.2,399,171.4,407.4,142.7z"/>
<path class="st4" d="M457.8,228c8.1-28.6,16.3-57.2,24.5-85.8c25.2-0.1,50.3-0.5,75.5-0.8c2.2,6.7,4.5,13.4,6.7,20
	C552,172.1,539.7,183,527.6,194c6.4,15.6,12.9,31.1,19.5,46.6c-17.3-15.7-34-31.9-50.4-48.5c8.5-7.2,17-14.4,25.5-21.6
	c2.2-1.8,4.5-3.5,6.2-5.8c-9.5-0.2-18.9,0.6-28.4,0.6c-4.5,15.5-8.9,31-13.3,46.4C477,217.2,467.4,222.6,457.8,228z"/>
<path class="st1" d="M83.8,171.2c1.4-4.2,2.8-8.5,4.3-12.7c5.4,0.2,10.8,0.5,16.2,0.8c0.3,2,0.7,3.9,1,5.9
	C98.1,167.3,91,169.3,83.8,171.2z"/>
<path class="st1" d="M77,188.6c1.2-3,2.4-6,3.6-9c5.9,0.6,11.7,0.9,17.6,1.8c2.3,3.5,4.8,6.8,7.1,10.3
	C95.8,190.6,86.4,189.8,77,188.6z"/>
<path class="st5" d="M588.5,216c0.6-1.6,1.1-3.3,1.7-4.9c11.4,8.2,22.6,17.5,29.3,30.1c7.8,13.5,10.2,30.2,5.3,45.2
	c-5.6,17.2-18.3,31.9-34.1,40.7c-13.9,7.5-29.4,12-45,13.5c-4.9-2.1-9.4-5-14.2-7.4c1.3,3.5,2.9,7.1,2.7,11
	c-10.3-11.8-20.5-23.8-31.8-34.6c6.6,13.1,12.4,26.7,17.7,40.4c-5.4,1.1-10.6,3-15.8,4.8c-3.2,1.2-7.3,1.6-10-1.1
	c-3.8-3.7-6.5-8.4-9.2-12.8c-12-20.4-23.5-41.1-35.2-61.7c8-1.8,16-3.4,24-5.2c7.5,6.5,15,13.2,22.6,19.7c-2.1-6.2-3.8-12.5-4-19.1
	c20.6,4.9,42.3-0.7,60.6-10.6c8,6.1,14.3,13.8,21.7,20.5c-3-11.4-7.4-22.4-12.3-33.1c-2.3-5.9-2.9-12.3-4.4-18.4
	C568,227.4,578.3,221.7,588.5,216z"/>
<path class="st5" d="M105,238.5c2.4-3.8,5.4-7.3,8.5-10.6c18.2,2.8,36.5,5.1,54.8,7.2c-7.8,15.3-14.1,31.4-18.5,48
	c6.6-7.2,13.4-14.2,20.2-21.1c5.7,6.1,13.7,9.3,21.7,11.3c12.9,3.2,26.3,4,39.6,3.8c-0.7,5.4-1.5,10.8-2.2,16.3
	c5-5.8,9.8-11.6,14.7-17.6c9.8,0.2,19.5,0.6,29.2,1.1c-8.9,17.9-17.9,35.8-26.9,53.7c-4.5,9.5-10.7,18.1-16.2,27.1
	c-7.9-3.1-15.8-6.1-23.7-9.3c3.9-13.5,7.9-27,11.8-40.5c-10.1,11.5-19.3,23.7-29.3,35.4c0.8-3.1,1.6-6.2,2.4-9.4
	c-4.2,2.2-8.4,4.5-12.6,6.8c-21.9-2.8-44.3-9.6-60.8-24.9c-13.7-12.5-21.2-31.2-20.3-49.7C98.2,256.6,99.6,246.6,105,238.5z"/>
<path class="st3" d="M364.3,281.5c1.3-3.7,3.6-8.5,8.3-8.4c12.7-0.6,25.4,1.1,37.9,2.6c8.6,1.2,17.2,2.6,25.6,4.8
	c3,0.9,6.6,1.7,8.4,4.6c3.4,5,5.6,10.6,7.8,16.2c6.2,16.5,11,33.5,15.5,50.5c-12.1,1.5-23.6,5.7-35,9.8c10.8,0.8,20.5,6.2,30.1,11
	c-20.3,10.8-40.5,21.6-60.8,32.4c-6.2-10.3-12.1-20.7-18.5-30.8c-0.6,9.8,0.4,19.6,1.1,29.4c2.4,27.1,5.6,54,9,81
	c-5.1,2.2-10.1,4.3-15.2,6.4c-10.8-12.9-20.7-26.5-28.6-41.4c-3.5-7.2-7.1-15.1-5.3-23.3c3.1-15,6.6-29.9,9.7-44.9
	c-2,0.2-4.1,0.5-6.1,0.7c2.8-15.4,7.2-30.6,10.1-46c-4,4.4-7.6,9-11.7,13.2c0.9-17.7,1.6-35.5,0.8-53.3c-0.4-4.4-0.5-9.7-4.4-12.6
	c-5.5-4.5-12.9-5.3-19.3-7.9c8.6-1.2,17.4-1.4,26.1-1.9c3.1,14.1,6.2,28.3,9.4,42.4C360.1,304.5,360.6,292.7,364.3,281.5z"/>
<path class="st6" d="M287.7,280.6c11.9-2.6,24.1-4.2,36.2-5c6.4,2.6,13.7,3.5,19.3,7.9c3.9,2.9,3.9,8.2,4.4,12.6
	c0.8,17.8,0.1,35.5-0.8,53.3c4.2-4.2,7.8-8.9,11.7-13.2c-2.9,15.4-7.3,30.6-10.1,46c2-0.2,4.1-0.5,6.1-0.7
	c-3.1,15-6.6,29.9-9.7,44.9c-1.8,8.2,1.8,16.1,5.3,23.3c7.9,14.9,17.8,28.5,28.6,41.4c-10.9,4.5-21.6,9.1-32.5,13.6
	c0.2,0.1,0.7,0.4,1,0.5c9,4.7,18.6,8.4,27.8,12.7c3.6,1.8,7.3,3.3,11.1,4.5c0.2-2.8,0.4-5.5,0.5-8.3c4.5,6.1,10,11.7,13.2,18.7
	c-25.9-3-52-3-78-1c-3.1,0.4-8.1,1.4-8.1,5.4c1.2,7.9,3.8,15.6,5.9,23.3c-6.7-7.5-13.3-14.9-19.9-22.4c9.6-19,14.4-40.1,17.8-61
	c3.7-24,5.2-48.3,5.1-72.6c-21.5-10.2-43-20.4-64.5-30.7c2.9-6.2,9.5-9.4,15.8-11.3c8-2.4,16.5-3.2,24.8-3.5
	c-15-3.6-30.2-6.6-44.5-12.4c6.5-13.8,9.2-28.9,12.5-43.6c3.8-7.2,9-13.4,14.5-19.4C282.6,281.5,285.4,281.2,287.7,280.6z"/>
<path class="st6" d="M164.7,367.2c7.2-2,14.5-3.8,21.9-5.1c9.4-2,17.8,4,25.4,8.5c-6.5,0.4-13.2,0.6-19.4,2.8
	c5,5.5,12.1,8.4,18.9,10.9c6.4,2.3,12.9,3.8,19.5,5.5c-13.5,0.8-27.4,0.1-40.5-3.6C180.2,383.1,169.4,377.5,164.7,367.2z"/>
<path class="st3" d="M502.4,371.9c5.7-2.5,11.3-5.6,17.4-7.2c10.7-2.4,21.4,1.3,31.4,4.8c-6.3,10.6-17.8,17.1-29.5,20.2
	c-12.4,3.3-25.4,3.4-38,2c10.7-2.6,21.5-5.1,31.4-10.1c2.6-1.3,5-3.1,7-5.2C515.8,374,509,373.3,502.4,371.9z"/>
<path class="st4" d="M278.9,414.9c-6.4-1.8-7.2-11-3.5-15.6c6.4,3.2,12.3,7.2,18.1,11.3C290.2,415.1,284.1,415.9,278.9,414.9z"/>
<path class="st3" d="M449.2,418.3c7.7-3.9,15.4-7.7,23-11.5c0.9,13,1.2,25.9,2.4,38.9c-8.8,7.6-18,14.8-27,22.1
	C448.3,451.2,448.8,434.8,449.2,418.3z"/>
<path class="st6" d="M247.3,408.4c7.6,4.5,15.4,8.8,23,13.4c1.2,13.6,1.5,27.3,2.5,40.9c-8.5-6.5-17-13.1-25.5-19.6
	C247.2,431.5,247.2,420,247.3,408.4z"/>
<path class="st6" d="M287.2,431.4c8.5,8.9,14.5,20.3,15.9,32.6c2.1,16.2-2.6,32.7-10.6,46.7c-3.3-4.5-6.6-9.1-9.9-13.6
	c2.4-3.2,4.5-6.8,4.5-10.9c0.3-5.6-2.6-10.8-6-15C283.2,457.9,285.2,444.6,287.2,431.4z"/>
<path class="st3" d="M420,452c1.5-7.9,6.2-14.8,12-20.3c2.3,14.3,4.6,28.5,6.9,42.8c-3.4,4.5-6.8,9.1-10.1,13.6
	C421.8,477.6,417.4,464.6,420,452z"/>
<path class="st3" d="M347.2,505.2c17.8,0.2,35.6,1.2,53.4,1.7c7.9,10.5,15.9,20.9,23.8,31.4c-6.1,7.5-13.1,14.3-20.2,21
	c2.3-6.9,6-13.7,6.4-21.1c-1.9-4-6.9-4.5-10.7-5.2l-0.1-0.1c-3.1-7-8.6-12.6-13.2-18.7c-0.2,2.8-0.4,5.5-0.5,8.3
	c-3.8-1.2-7.5-2.7-11.1-4.5C365.8,513.6,356.2,510,347.2,505.2z"/>
<path class="st6" d="M332.2,587.6c0-3.3,0-6.5-0.1-9.8c18.5,6.9,39,5.7,57.7,0.5c0.3,2.8,0.5,5.7,0.9,8.5
	C372.3,594.7,350.7,595.3,332.2,587.6z"/>
</svg>
