<?xml version="1.0" encoding="utf-8"?>
<!-- Generator: Adobe Illustrator 23.0.3, SVG Export Plug-In . SVG Version: 6.00 Build 0)  -->
<svg version="1.1" id="Layer_1" xmlns="http://www.w3.org/2000/svg" xmlns:xlink="http://www.w3.org/1999/xlink" x="0px" y="0px"
	 viewBox="0 0 102.05 102.05" style="enable-background:new 0 0 102.05 102.05;" xml:space="preserve">
<style type="text/css">
	.st0{fill:#FFFFFF;}
</style>
<rect x="26.22" y="81.13" class="st0" width="49.99" height="14.94"/>
<g>
	<polygon points="84.71,16.25 71.94,3.48 50.94,24.48 29.95,3.48 17.18,16.25 38.18,37.24 17.18,58.24 29.95,71 50.94,50.01 
		71.94,71 84.71,58.24 63.71,37.24 	"/>
	<g>
		<path d="M32.59,87.66c0.5,0,1.25,0,2.24,0c0-0.09,0-0.22,0-0.39c0-0.41,0-1.03,0-1.84c-0.49,0-1.24,0-2.24,0
			C32.59,85.91,32.59,86.66,32.59,87.66z"/>
		<path d="M17.18,79.74V97.8h67.53V79.74H17.18z M37.05,93.22c0,0.31-0.11,0.57-0.32,0.79c-0.22,0.22-0.48,0.33-0.79,0.33
			c-1,0-2.49,0-4.46,0c-0.31,0-0.57-0.11-0.79-0.33c-0.22-0.21-0.33-0.47-0.33-0.79c0-0.49,0-1.23,0-2.22c0.49,0,1.23,0,2.22,0
			c0,0.24,0,0.61,0,1.12c0.5,0,1.25,0,2.24,0c0-0.5,0-1.25,0-2.24c-0.75,0-1.86,0-3.34,0c-0.31,0-0.57-0.11-0.79-0.32
			c-0.22-0.22-0.33-0.49-0.33-0.8c0-0.49,0-1.11,0-1.86c0-0.75,0-1.61,0-2.6c0-0.3,0.11-0.56,0.33-0.79
			c0.21-0.21,0.47-0.32,0.79-0.32c0.99,0,2.47,0,4.46,0c0.3,0,0.56,0.11,0.79,0.32c0.21,0.22,0.32,0.48,0.32,0.79
			C37.05,86.29,37.05,89.26,37.05,93.22z M45.65,91.56c0,0.46,0,1.39,0,2.78c-0.36,0-1.1,0-2.22,0c0-0.93,0-2.32,0-4.17
			c0-1.85,0-4.18,0-6.97c0.37,0,1.11,0,2.22,0C45.65,84.59,45.65,87.38,45.65,91.56z M58.66,94.34c-0.49,0-1.23,0-2.22,0
			c0-1.99,0-4.96,0-8.92c-0.49,0-1.24,0-2.24,0c0,1.99,0,4.96,0,8.92c-0.49,0-1.23,0-2.22,0c0-1.24,0-2.79,0-4.64
			c0-1.85,0-4.02,0-6.5c0.49,0,1.23,0,2.22,0c0.75,0,1.86,0,3.36,0c0.3,0,0.56,0.11,0.79,0.32c0.21,0.22,0.32,0.48,0.32,0.79
			C58.66,86.54,58.66,89.89,58.66,94.34z M71.52,85.42c-1.98,0-3.46,0-4.46,0c0,0.99,0,1.73,0,2.24c1.49,0,2.61,0,3.36,0
			c0,0.99,0,1.73,0,2.22c-1.49,0-2.61,0-3.36,0c0,0.99,0,1.73,0,2.24c1.99,0,3.47,0,4.46,0c0,0.99,0,1.73,0,2.22
			c-1.98,0-3.46,0-4.46,0c-0.99,0-1.73,0-2.22,0c0-0.49,0-0.93,0-1.3c0-0.37,0-0.68,0-0.92c0-1.12,0-1.86,0-2.24
			c0-1.12,0-1.86,0-2.22c0-1.12,0-1.86,0-2.24c0-1.11,0-1.85,0-2.22c1.12,0,1.86,0,2.22,0c2.24,0,3.72,0,4.46,0
			C71.52,84.31,71.52,85.05,71.52,85.42z"/>
	</g>
</g>
</svg>
