<?xml version="1.0" encoding="utf-8"?>
<!-- Generator: Adobe Illustrator 21.0.2, SVG Export Plug-In . SVG Version: 6.00 Build 0)  -->
<svg version="1.1" id="Layer_1" xmlns="http://www.w3.org/2000/svg" xmlns:xlink="http://www.w3.org/1999/xlink" x="0px" y="0px"
	 viewBox="0 0 879 879" style="enable-background:new 0 0 879 879;" xml:space="preserve">
<style type="text/css">
	.st0{fill:#9C0022;}
	.st1{fill:#CF0023;}
	.st2{fill:#FC0036;}
	.st3{fill:#830029;}
</style>
<g>
	<path class="st0" d="M199.005,533.746c11.96-1.716,24.014-2.983,35.905-5.096c67.723-107.801,135.54-215.55,203.374-323.273
		c0.664,2.526,0.31,5.156,0.345,7.735c0.017,106.654,0.009,213.308,0.009,319.962c0.164,13.141-0.336,26.308,0.224,39.431
		c5.105-0.026,9.976-1.923,14.986-2.733c60.135-12.908,120.295-25.73,180.438-38.595c2.932-0.733,5.898-1.336,8.916-1.578
		c0.25-0.181,0.75-0.552,1-0.733c-13.279-21.548-27.11-42.777-40.561-64.23c-54.461-85.821-108.87-171.66-163.296-257.499
		c-1.104-1.518-1.759-3.302-1.604-5.191c-0.052-45.717,0.026-91.426-0.052-137.135c0.069-1.078,0.216-2.156,0.431-3.216
		c-0.164-0.267-0.509-0.793-0.673-1.061h-0.103c-33.275,53.366-66.972,106.49-100.385,159.778
		c-61.281,97.35-122.511,194.743-183.792,292.102c-6.148,9.916-12.537,19.686-18.556,29.679c-0.121-0.034-0.371-0.112-0.492-0.147
		v0.285l0.164-0.009c3.234,0.017,6.389-0.69,9.588-1.035C162.91,538.652,180.966,536.298,199.005,533.746z"/>
	<path class="st0" d="M438.741,201.945c-0.155,1.888,0.5,3.673,1.604,5.191c54.426,85.839,108.835,171.677,163.296,257.499
		c13.451,21.453,27.282,42.682,40.561,64.23c30.938,4.234,61.868,8.45,92.806,12.693c2.268,0.224,4.57,0.983,6.864,0.422
		C642.167,381.926,540.756,221.691,439.121,61.594c-0.216,1.061-0.362,2.138-0.431,3.216
		C438.767,110.519,438.689,156.228,438.741,201.945z"/>
	<path class="st0" d="M438.526,572.901c-37.138-7.872-74.224-15.995-111.336-23.954c-30.464-6.458-60.842-13.348-91.349-19.548
		c0.397,1.311,1.63,2.061,2.552,2.983c66.765,60.523,133.315,121.304,200.141,181.766c0.078-1.173,0.121-2.337,0.121-3.492
		C438.534,664.742,438.81,618.817,438.526,572.901z"/>
	<path class="st0" d="M438.646,803.843c-0.009-27.041-0.017-54.081-0.026-81.122c0.069-2.708-0.302-5.493,0.423-8.123
		c2.25-3.492,6.139-5.424,8.89-8.459c53.771-48.563,107.637-96.971,161.365-145.542c4.061-3.087,7.286-7.088,11.382-10.132
		c7.321-7.165,15.573-13.339,22.522-20.867c-3.018,0.241-5.984,0.845-8.916,1.578c-60.143,12.865-120.304,25.687-180.438,38.595
		c-5.01,0.81-9.882,2.707-14.986,2.733c-0.561-13.124-0.06-26.291-0.224-39.431c0-106.654,0.009-213.308-0.009-319.962
		c-0.034-2.578,0.319-5.208-0.345-7.735C370.45,313.1,302.632,420.849,234.91,528.65c-11.891,2.113-23.945,3.38-35.905,5.096
		c-18.039,2.552-36.095,4.906-54.133,7.441c-3.199,0.345-6.355,1.052-9.588,1.035c7.381,7.631,15.65,14.365,23.393,21.634
		c93.306,84.899,186.776,169.643,280.021,254.61h0.405l-0.198-0.629C438.379,813.19,438.733,808.499,438.646,803.843z
		 M238.393,532.383c-0.923-0.923-2.156-1.673-2.552-2.983c30.507,6.2,60.885,13.089,91.349,19.548
		c37.112,7.959,74.198,16.081,111.336,23.954c0.285,45.916,0.009,91.84,0.129,137.756c0,1.155-0.043,2.319-0.121,3.492
		C371.709,653.687,305.159,592.906,238.393,532.383z"/>
	<path class="st0" d="M743.88,541.989l-0.009-0.009c-2.294,0.56-4.596-0.198-6.864-0.422c-30.938-4.242-61.868-8.459-92.806-12.693
		c-0.25,0.181-0.75,0.552-1,0.733c-6.95,7.528-15.202,13.701-22.522,20.867c-4.096,3.044-7.321,7.045-11.382,10.132
		c-53.728,48.572-107.594,96.979-161.365,145.542c-2.751,3.035-6.639,4.967-8.89,8.459c-0.724,2.63-0.354,5.415-0.423,8.123
		c0.009,27.041,0.017,54.081,0.026,81.122c0.086,4.656-0.267,9.347,0.259,13.995c101.67-91.676,203.443-183.249,304.975-275.072
		V541.989z"/>
</g>
<g>
	<path class="st1" d="M160.59,548.8c13.87-1.99,27.85-3.46,41.64-5.91c78.54-125.02,157.19-249.98,235.86-374.91
		c0.77,2.93,0.36,5.98,0.4,8.97c0.02,123.69,0.01,247.38,0.01,371.07c0.19,15.24-0.39,30.51,0.26,45.73
		c5.92-0.03,11.57-2.23,17.38-3.17c69.74-14.97,139.51-29.84,209.26-44.76c3.4-0.85,6.84-1.55,10.34-1.83
		c0.29-0.21,0.87-0.64,1.16-0.85c-15.4-24.99-31.44-49.61-47.04-74.49C566.7,369.12,503.6,269.57,440.48,170.02
		c-1.28-1.76-2.04-3.83-1.86-6.02c-0.06-53.02,0.03-106.03-0.06-159.04c0.08-1.25,0.25-2.5,0.5-3.73c-0.19-0.31-0.59-0.92-0.78-1.23
		h-0.12c-38.59,61.89-77.67,123.5-116.42,185.3c-71.07,112.9-142.08,225.85-213.15,338.76c-7.13,11.5-14.54,22.83-21.52,34.42
		c-0.14-0.04-0.43-0.13-0.57-0.17v0.33l0.19-0.01c3.75,0.02,7.41-0.8,11.12-1.2C118.73,554.49,139.67,551.76,160.59,548.8z"/>
	<path class="st2" d="M438.62,164c-0.18,2.19,0.58,4.26,1.86,6.02c63.12,99.55,126.22,199.1,189.38,298.63
		c15.6,24.88,31.64,49.5,47.04,74.49c35.88,4.91,71.75,9.8,107.63,14.72c2.63,0.26,5.3,1.14,7.96,0.49
		C674.54,372.73,556.93,186.9,439.06,1.23c-0.25,1.23-0.42,2.48-0.5,3.73C438.65,57.97,438.56,110.98,438.62,164z"/>
	<path class="st2" d="M438.37,594.21c-43.07-9.13-86.08-18.55-129.12-27.78c-35.33-7.49-70.56-15.48-105.94-22.67
		c0.46,1.52,1.89,2.39,2.96,3.46c77.43,70.19,154.61,140.68,232.11,210.8c0.09-1.36,0.14-2.71,0.14-4.05
		C438.38,700.72,438.7,647.46,438.37,594.21z"/>
	<path class="st0" d="M438.51,862.04c-0.01-31.36-0.02-62.72-0.03-94.08c0.08-3.14-0.35-6.37,0.49-9.42
		c2.61-4.05,7.12-6.29,10.31-9.81c62.36-56.32,124.83-112.46,187.14-168.79c4.71-3.58,8.45-8.22,13.2-11.75
		c8.49-8.31,18.06-15.47,26.12-24.2c-3.5,0.28-6.94,0.98-10.34,1.83c-69.75,14.92-139.52,29.79-209.26,44.76
		c-5.81,0.94-11.46,3.14-17.38,3.17c-0.65-15.22-0.07-30.49-0.26-45.73c0-123.69,0.01-247.38-0.01-371.07
		c-0.04-2.99,0.37-6.04-0.4-8.97c-78.67,124.93-157.32,249.89-235.86,374.91c-13.79,2.45-27.77,3.92-41.64,5.91
		c-20.92,2.96-41.86,5.69-62.78,8.63c-3.71,0.4-7.37,1.22-11.12,1.2c8.56,8.85,18.15,16.66,27.13,25.09
		C222.03,682.18,330.43,780.46,438.57,879h0.47l-0.23-0.73C438.2,872.88,438.61,867.44,438.51,862.04z M206.27,547.22
		c-1.07-1.07-2.5-1.94-2.96-3.46c35.38,7.19,70.61,15.18,105.94,22.67c43.04,9.23,86.05,18.65,129.12,27.78
		c0.33,53.25,0.01,106.51,0.15,159.76c0,1.34-0.05,2.69-0.14,4.05C360.88,687.9,283.7,617.41,206.27,547.22z"/>
	<path class="st3" d="M792.5,558.36l-0.01-0.01c-2.66,0.65-5.33-0.23-7.96-0.49c-35.88-4.92-71.75-9.81-107.63-14.72
		c-0.29,0.21-0.87,0.64-1.16,0.85c-8.06,8.73-17.63,15.89-26.12,24.2c-4.75,3.53-8.49,8.17-13.2,11.75
		c-62.31,56.33-124.78,112.47-187.14,168.79c-3.19,3.52-7.7,5.76-10.31,9.81c-0.84,3.05-0.41,6.28-0.49,9.42
		c0.01,31.36,0.02,62.72,0.03,94.08c0.1,5.4-0.31,10.84,0.3,16.23C556.72,771.95,674.75,665.75,792.5,559.26V558.36z"/>
</g>
</svg>
